# xmcd
#
# Track frame offsets:
#  150
#  8800
#  21355
#  34595
#  49817
#  65717
#  84980
#  96332
#  107590
#  122705
#
# Disc length: 1892 seconds
#
# Revision: 0
# Processed by: cddbd v1.5.1PL2 Copyright (c) Steve Scherf et al.
# Submitted via: Collectorz.com_Music_Collector 6.9
#
DISCID=7c07620a
DTITLE=White, Buddy - Long Time Believin'
DYEAR=2000
DGENRE=Country
TTITLE0=Long Time Believin'
TTITLE1=A Song For Barbara
TTITLE2=Lights Of Home
TTITLE3=Langhorne Acres
TTITLE4=Song For Stevie
TTITLE5=Hey Mister
TTITLE6=Calvary
TTITLE7=Gospel Medley
TTITLE8=Just Wonderin'
TTITLE9=John Deere Tractor
EXTD=
EXTT0=
EXTT1=
EXTT2=
EXTT3=
EXTT4=
EXTT5=
EXTT6=
EXTT7=
EXTT8=
EXTT9=
PLAYORDER=
